<mxfile host="Electron" modified="2024-06-10T12:05:53.148Z" agent="Mozilla/5.0 (Windows NT 10.0; Win64; x64) AppleWebKit/537.36 (KHTML, like Gecko) draw.io/24.1.0 Chrome/120.0.6099.109 Electron/28.1.0 Safari/537.36" etag="JCrOm2TB9-rthQuqAOrB" version="24.1.0" type="device">
  <diagram name="Страница — 1" id="NTNqlm_6k0qxpmBlKWSe">
    <mxGraphModel dx="1348" dy="1326" grid="1" gridSize="10" guides="1" tooltips="1" connect="1" arrows="1" fold="1" page="1" pageScale="1" pageWidth="650" pageHeight="200" math="0" shadow="0">
      <root>
        <mxCell id="0" />
        <mxCell id="1" parent="0" />
        <mxCell id="snCasCpQOulgr23BDGO2-2" value="регистрация - 2&amp;nbsp;&lt;div&gt;день&amp;nbsp;&lt;div&gt;(подключение почты)&lt;/div&gt;&lt;div&gt;(jwt токен)&lt;/div&gt;&lt;/div&gt;&lt;div&gt;&lt;br&gt;&lt;/div&gt;" style="rounded=0;whiteSpace=wrap;html=1;" vertex="1" parent="1">
          <mxGeometry x="-620" y="10" width="120" height="110" as="geometry" />
        </mxCell>
        <mxCell id="snCasCpQOulgr23BDGO2-7" value="" style="edgeStyle=orthogonalEdgeStyle;rounded=0;orthogonalLoop=1;jettySize=auto;html=1;" edge="1" parent="1" source="snCasCpQOulgr23BDGO2-5" target="snCasCpQOulgr23BDGO2-6">
          <mxGeometry relative="1" as="geometry" />
        </mxCell>
        <mxCell id="snCasCpQOulgr23BDGO2-47" value="" style="edgeStyle=orthogonalEdgeStyle;rounded=0;orthogonalLoop=1;jettySize=auto;html=1;" edge="1" parent="1" source="snCasCpQOulgr23BDGO2-5" target="snCasCpQOulgr23BDGO2-29">
          <mxGeometry relative="1" as="geometry" />
        </mxCell>
        <mxCell id="snCasCpQOulgr23BDGO2-5" value="ввод адреса&amp;nbsp; 1 день" style="rounded=0;whiteSpace=wrap;html=1;" vertex="1" parent="1">
          <mxGeometry x="-460" y="10" width="120" height="110" as="geometry" />
        </mxCell>
        <mxCell id="snCasCpQOulgr23BDGO2-6" value="исползьовать базу адресов + 2 дня" style="rounded=0;whiteSpace=wrap;html=1;" vertex="1" parent="1">
          <mxGeometry x="-430" y="-50" width="120" height="50" as="geometry" />
        </mxCell>
        <mxCell id="snCasCpQOulgr23BDGO2-36" value="" style="edgeStyle=orthogonalEdgeStyle;rounded=0;orthogonalLoop=1;jettySize=auto;html=1;exitX=1;exitY=0.75;exitDx=0;exitDy=0;" edge="1" parent="1" source="snCasCpQOulgr23BDGO2-8" target="snCasCpQOulgr23BDGO2-35">
          <mxGeometry relative="1" as="geometry" />
        </mxCell>
        <mxCell id="snCasCpQOulgr23BDGO2-8" value="выбор шавухи - 7 дня&lt;div&gt;-показ шавухи списков без состава&amp;nbsp;&lt;/div&gt;&lt;div&gt;-показ шавухи со составом&lt;/div&gt;&lt;div&gt;поиск шавухи(openSearh)&lt;/div&gt;&lt;div&gt;кеш само собой&lt;/div&gt;&lt;div&gt;корзина&lt;/div&gt;" style="rounded=0;whiteSpace=wrap;html=1;" vertex="1" parent="1">
          <mxGeometry x="-280" y="20" width="140" height="130" as="geometry" />
        </mxCell>
        <mxCell id="snCasCpQOulgr23BDGO2-17" value="" style="edgeStyle=orthogonalEdgeStyle;rounded=0;orthogonalLoop=1;jettySize=auto;html=1;" edge="1" parent="1" source="snCasCpQOulgr23BDGO2-15" target="snCasCpQOulgr23BDGO2-16">
          <mxGeometry relative="1" as="geometry" />
        </mxCell>
        <mxCell id="snCasCpQOulgr23BDGO2-15" value="оплатить наличными ли оплата картой&lt;div&gt;- 3 часа&lt;/div&gt;" style="rounded=0;whiteSpace=wrap;html=1;" vertex="1" parent="1">
          <mxGeometry x="260" y="-145" width="140" height="130" as="geometry" />
        </mxCell>
        <mxCell id="snCasCpQOulgr23BDGO2-16" value="реальная оплата&lt;div&gt;+ 2 дня&lt;/div&gt;&lt;div&gt;&lt;br&gt;&lt;/div&gt;" style="rounded=0;whiteSpace=wrap;html=1;" vertex="1" parent="1">
          <mxGeometry x="260" y="20" width="140" height="90" as="geometry" />
        </mxCell>
        <mxCell id="snCasCpQOulgr23BDGO2-52" value="" style="edgeStyle=orthogonalEdgeStyle;rounded=0;orthogonalLoop=1;jettySize=auto;html=1;" edge="1" parent="1" source="snCasCpQOulgr23BDGO2-18" target="snCasCpQOulgr23BDGO2-50">
          <mxGeometry relative="1" as="geometry" />
        </mxCell>
        <mxCell id="snCasCpQOulgr23BDGO2-18" value="предприятие&lt;div&gt;получает заказ&lt;/div&gt;&lt;div&gt;и жмакает что сделала его&lt;/div&gt;&lt;div&gt;- 1&amp;nbsp;&lt;span style=&quot;color: rgba(0, 0, 0, 0); font-family: monospace; font-size: 0px; text-align: start; text-wrap: nowrap; background-color: initial;&quot;&gt;%3CmxGraphModel%3E%3Croot%3E%3CmxCell%20id%3D%220%22%2F%3E%3CmxCell%20id%3D%221%22%20parent%3D%220%22%2F%3E%3CmxCell%20id%3D%222%22%20value%3D%22%D0%BE%D0%BF%D0%BB%D0%B0%D1%82%D0%B8%D1%82%D1%8C%20%D0%BD%D0%B0%D0%BB%D0%B8%D1%87%D0%BD%D1%8B%D0%BC%D0%B8%20%D0%BB%D0%B8%20%D0%BE%D0%BF%D0%BB%D0%B0%D1%82%D0%B0%20%D0%BA%D0%B0%D1%80%D1%82%D0%BE%D0%B9%26lt%3Bdiv%26gt%3B-%203%20%D1%87%D0%B0%D1%81%D0%B0%26lt%3B%2Fdiv%26gt%3B%22%20style%3D%22rounded%3D0%3BwhiteSpace%3Dwrap%3Bhtml%3D1%3B%22%20vertex%3D%221%22%20parent%3D%221%22%3E%3CmxGeometry%20x%3D%22-160%22%20y%3D%2210%22%20width%3D%22140%22%20height%3D%22130%22%20as%3D%22geometry%22%2F%3E%3C%2FmxCell%3E%3C%2Froot%3E%3C%2FmxGraphModel%3E&lt;/span&gt;&lt;span style=&quot;background-color: initial;&quot;&gt;день&lt;/span&gt;&lt;/div&gt;" style="rounded=0;whiteSpace=wrap;html=1;" vertex="1" parent="1">
          <mxGeometry x="430" y="-10" width="140" height="130" as="geometry" />
        </mxCell>
        <mxCell id="snCasCpQOulgr23BDGO2-21" value="Расчет дней для написания бека" style="text;html=1;align=center;verticalAlign=middle;whiteSpace=wrap;rounded=0;" vertex="1" parent="1">
          <mxGeometry x="-630" y="-120" width="230" height="30" as="geometry" />
        </mxCell>
        <mxCell id="snCasCpQOulgr23BDGO2-54" value="" style="edgeStyle=orthogonalEdgeStyle;rounded=0;orthogonalLoop=1;jettySize=auto;html=1;" edge="1" parent="1" source="snCasCpQOulgr23BDGO2-22" target="snCasCpQOulgr23BDGO2-53">
          <mxGeometry relative="1" as="geometry" />
        </mxCell>
        <mxCell id="snCasCpQOulgr23BDGO2-22" value="курьер получает уведомления&lt;div&gt;может смотреть список заказов&lt;/div&gt;&lt;div&gt;их адреса&lt;/div&gt;&lt;div&gt;принимает заказы&lt;/div&gt;&lt;div&gt;уведомляет что он пришел к клиенту&lt;/div&gt;&lt;div&gt;может написать клиенту&lt;/div&gt;&lt;div&gt;8 дней&lt;/div&gt;" style="rounded=0;whiteSpace=wrap;html=1;" vertex="1" parent="1">
          <mxGeometry x="640" y="-90" width="140" height="180" as="geometry" />
        </mxCell>
        <mxCell id="snCasCpQOulgr23BDGO2-56" value="" style="edgeStyle=orthogonalEdgeStyle;rounded=0;orthogonalLoop=1;jettySize=auto;html=1;" edge="1" parent="1" source="snCasCpQOulgr23BDGO2-24" target="snCasCpQOulgr23BDGO2-55">
          <mxGeometry relative="1" as="geometry" />
        </mxCell>
        <mxCell id="snCasCpQOulgr23BDGO2-24" value="&lt;br&gt;&lt;div&gt;редактиование профиля&lt;/div&gt;&lt;div&gt;1 день&lt;/div&gt;&lt;div&gt;&lt;br&gt;&lt;/div&gt;" style="rounded=0;whiteSpace=wrap;html=1;" vertex="1" parent="1">
          <mxGeometry x="870" y="-100" width="150" height="180" as="geometry" />
        </mxCell>
        <mxCell id="snCasCpQOulgr23BDGO2-26" value="POST - auth&lt;br&gt;(емайл&lt;div&gt;логин) return token&lt;/div&gt;&lt;div&gt;&lt;br&gt;&lt;/div&gt;&lt;div&gt;POST авторизация (token)&lt;/div&gt;&lt;div&gt;POST регистрация (&lt;/div&gt;&lt;div&gt;ФИО&lt;br&gt;ПАРОЛЬ&lt;br&gt;&lt;/div&gt;&lt;div&gt;ПОЧТА&lt;br&gt;НОМЕР ТЕЛЕФОНА&lt;/div&gt;&lt;div&gt;)&lt;br&gt;&lt;/div&gt;&lt;div&gt;POST (код из сообщения имайл)&lt;/div&gt;&lt;div&gt;&lt;br&gt;&lt;/div&gt;&lt;div&gt;&lt;br&gt;&lt;/div&gt;" style="rounded=0;whiteSpace=wrap;html=1;" vertex="1" parent="1">
          <mxGeometry x="-620" y="130" width="120" height="230" as="geometry" />
        </mxCell>
        <mxCell id="snCasCpQOulgr23BDGO2-29" value="GET на подходяищй адрес&lt;div&gt;POST отправил адрес&lt;/div&gt;" style="rounded=0;whiteSpace=wrap;html=1;" vertex="1" parent="1">
          <mxGeometry x="-460" y="145" width="120" height="155" as="geometry" />
        </mxCell>
        <mxCell id="snCasCpQOulgr23BDGO2-34" value="" style="edgeStyle=orthogonalEdgeStyle;rounded=0;orthogonalLoop=1;jettySize=auto;html=1;entryX=0.5;entryY=0;entryDx=0;entryDy=0;" edge="1" parent="1" source="snCasCpQOulgr23BDGO2-30" target="snCasCpQOulgr23BDGO2-32">
          <mxGeometry relative="1" as="geometry">
            <mxPoint x="10" y="-15" as="targetPoint" />
          </mxGeometry>
        </mxCell>
        <mxCell id="snCasCpQOulgr23BDGO2-30" value="Поиск шавухи" style="rounded=0;whiteSpace=wrap;html=1;" vertex="1" parent="1">
          <mxGeometry x="-20" y="-110" width="120" height="60" as="geometry" />
        </mxCell>
        <mxCell id="snCasCpQOulgr23BDGO2-31" value="" style="endArrow=classic;html=1;rounded=0;entryX=0;entryY=0.5;entryDx=0;entryDy=0;exitX=1;exitY=0.25;exitDx=0;exitDy=0;" edge="1" parent="1" source="snCasCpQOulgr23BDGO2-8" target="snCasCpQOulgr23BDGO2-30">
          <mxGeometry width="50" height="50" relative="1" as="geometry">
            <mxPoint x="-120" y="100" as="sourcePoint" />
            <mxPoint x="-70" y="50" as="targetPoint" />
            <Array as="points">
              <mxPoint x="-130" y="-80" />
            </Array>
          </mxGeometry>
        </mxCell>
        <mxCell id="snCasCpQOulgr23BDGO2-32" value="GET (cтрока поля)&lt;div&gt;reutrn список подходящих&lt;/div&gt;&lt;div&gt;GET (cтрока поля)&lt;div&gt;return картинок меню шавух(более полные)&lt;/div&gt;&lt;/div&gt;" style="rounded=0;whiteSpace=wrap;html=1;" vertex="1" parent="1">
          <mxGeometry x="-20" y="-10" width="120" height="130" as="geometry" />
        </mxCell>
        <mxCell id="snCasCpQOulgr23BDGO2-35" value="получить меню" style="rounded=0;whiteSpace=wrap;html=1;" vertex="1" parent="1">
          <mxGeometry x="-20" y="145" width="120" height="60" as="geometry" />
        </mxCell>
        <mxCell id="snCasCpQOulgr23BDGO2-38" value="GET (список)&lt;div&gt;return меню&lt;/div&gt;&lt;div&gt;GET (список с составом)&lt;div&gt;return меню...&lt;/div&gt;&lt;/div&gt;&lt;div&gt;&lt;br&gt;&lt;/div&gt;" style="rounded=0;whiteSpace=wrap;html=1;" vertex="1" parent="1">
          <mxGeometry x="-20" y="250" width="120" height="100" as="geometry" />
        </mxCell>
        <mxCell id="snCasCpQOulgr23BDGO2-39" value="" style="endArrow=classic;html=1;rounded=0;entryX=0.5;entryY=0;entryDx=0;entryDy=0;exitX=0.5;exitY=1;exitDx=0;exitDy=0;" edge="1" parent="1" source="snCasCpQOulgr23BDGO2-35" target="snCasCpQOulgr23BDGO2-38">
          <mxGeometry width="50" height="50" relative="1" as="geometry">
            <mxPoint x="-110" y="200" as="sourcePoint" />
            <mxPoint x="-60" y="150" as="targetPoint" />
          </mxGeometry>
        </mxCell>
        <mxCell id="snCasCpQOulgr23BDGO2-42" value="корзина&lt;div&gt;&amp;nbsp;1 день&lt;/div&gt;" style="rounded=0;whiteSpace=wrap;html=1;" vertex="1" parent="1">
          <mxGeometry x="120" y="-10" width="120" height="50" as="geometry" />
        </mxCell>
        <mxCell id="snCasCpQOulgr23BDGO2-43" value="POST(token, item, count)&lt;div&gt;GET (token)&lt;/div&gt;&lt;div&gt;return корзина&lt;/div&gt;&lt;div&gt;PUT(token, itrem, count)&lt;/div&gt;&lt;div&gt;DELETE(token, item)&lt;/div&gt;&lt;div&gt;POST(token, коментарий)&lt;/div&gt;" style="rounded=0;whiteSpace=wrap;html=1;" vertex="1" parent="1">
          <mxGeometry x="120" y="65" width="120" height="150" as="geometry" />
        </mxCell>
        <mxCell id="snCasCpQOulgr23BDGO2-44" value="" style="endArrow=classic;html=1;rounded=0;exitX=0.5;exitY=1;exitDx=0;exitDy=0;" edge="1" parent="1" source="snCasCpQOulgr23BDGO2-42" target="snCasCpQOulgr23BDGO2-43">
          <mxGeometry width="50" height="50" relative="1" as="geometry">
            <mxPoint x="150" y="352" as="sourcePoint" />
            <mxPoint x="200" y="302" as="targetPoint" />
          </mxGeometry>
        </mxCell>
        <mxCell id="snCasCpQOulgr23BDGO2-49" value="GET(items, user_address, kitchen_addres)&lt;br&gt;return (цена, цена доставки)&lt;div&gt;POST(&lt;span style=&quot;background-color: initial;&quot;&gt;тип оплаты&lt;/span&gt;&lt;span style=&quot;background-color: initial;&quot;&gt;)&lt;/span&gt;&lt;/div&gt;&lt;div&gt;return logicByTypePayment&lt;/div&gt;&lt;div&gt;&lt;span style=&quot;background-color: initial;&quot;&gt;&lt;br&gt;&lt;/span&gt;&lt;/div&gt;" style="rounded=0;whiteSpace=wrap;html=1;" vertex="1" parent="1">
          <mxGeometry x="270" y="150" width="120" height="140" as="geometry" />
        </mxCell>
        <mxCell id="snCasCpQOulgr23BDGO2-50" value="GET(items&lt;span style=&quot;background-color: initial;&quot;&gt;)&lt;/span&gt;&lt;div&gt;POST(items, ready)&lt;/div&gt;&lt;div&gt;&lt;br&gt;&lt;div&gt;&lt;span style=&quot;background-color: initial;&quot;&gt;&lt;br&gt;&lt;/span&gt;&lt;/div&gt;&lt;/div&gt;" style="rounded=0;whiteSpace=wrap;html=1;" vertex="1" parent="1">
          <mxGeometry x="440" y="140" width="120" height="80" as="geometry" />
        </mxCell>
        <mxCell id="snCasCpQOulgr23BDGO2-53" value="&lt;div&gt;GET()&lt;/div&gt;&lt;div&gt;return LIst&amp;lt;addres, addres, time&amp;gt;&lt;/div&gt;&lt;div&gt;POST(order) принял&amp;nbsp;&lt;/div&gt;&lt;div&gt;POST(пришел к клиенту)&lt;/div&gt;&lt;div&gt;POST(message) напиал клиенту&lt;/div&gt;&lt;div&gt;GET()&lt;/div&gt;&lt;div&gt;return message&lt;/div&gt;&lt;div&gt;POST(order, status) выполнил заказ&lt;/div&gt;&lt;div&gt;&lt;br&gt;&lt;div&gt;&lt;br&gt;&lt;/div&gt;&lt;/div&gt;" style="rounded=0;whiteSpace=wrap;html=1;" vertex="1" parent="1">
          <mxGeometry x="650" y="115" width="120" height="210" as="geometry" />
        </mxCell>
        <mxCell id="snCasCpQOulgr23BDGO2-55" value="PUT(userRequest(...))" style="rounded=0;whiteSpace=wrap;html=1;" vertex="1" parent="1">
          <mxGeometry x="885" y="100" width="120" height="210" as="geometry" />
        </mxCell>
      </root>
    </mxGraphModel>
  </diagram>
</mxfile>
